<svg width="59" height="59" viewBox="0 0 59 59" fill="none" xmlns="http://www.w3.org/2000/svg">
<g clip-path="url(#clip0_45_234)">
<path d="M29.0476 58.0952C45.0902 58.0952 58.0952 45.0902 58.0952 29.0476C58.0952 13.0051 45.0902 0 29.0476 0C13.0051 0 0 13.0051 0 29.0476C0 45.0902 13.0051 58.0952 29.0476 58.0952Z" fill="#E9E9E9"/>
<path d="M38.6055 17.4286H20.9422C18.9481 17.4286 17.4286 18.9481 17.4286 20.9422V38.6055C17.4286 40.5996 18.9481 42.1191 20.9422 42.1191H38.6055C40.5996 42.1191 42.1191 40.5996 42.1191 38.6055V20.9422C42.1191 18.9481 40.5996 17.4286 38.6055 17.4286ZM29.7738 37.181C33.8572 37.181 37.181 33.9522 37.181 30.0588C37.181 29.394 37.086 28.6343 36.896 28.0645H38.9853V38.1305C38.9853 38.6055 38.6055 39.0802 38.0357 39.0802H21.512C21.0372 39.0802 20.5624 38.7004 20.5624 38.1305V27.9695H22.7465C22.5567 28.6343 22.4617 29.299 22.4617 29.9638C22.3667 33.9522 25.6905 37.181 29.7738 37.181ZM29.7738 34.3321C27.1148 34.3321 25.0257 32.2429 25.0257 29.6788C25.0257 27.1148 27.1148 25.0257 29.7738 25.0257C32.4328 25.0257 34.5219 27.1148 34.5219 29.6788C34.5219 32.3379 32.4328 34.3321 29.7738 34.3321ZM38.8903 24.171C38.8903 24.7407 38.4155 25.2155 37.8457 25.2155H35.1867C34.6169 25.2155 34.1422 24.7407 34.1422 24.171V21.6069C34.1422 21.0372 34.6169 20.5624 35.1867 20.5624H37.8457C38.4155 20.5624 38.8903 21.0372 38.8903 21.6069V24.171Z" fill="black"/>
<circle cx="29.0476" cy="29.0476" r="27.5476" stroke="white" stroke-width="3"/>
</g>
<defs>
<clipPath id="clip0_45_234">
<rect width="58.0952" height="58.0952" fill="white"/>
</clipPath>
</defs>
</svg>
