<svg width="59" height="59" viewBox="0 0 59 59" fill="none" xmlns="http://www.w3.org/2000/svg">
<g clip-path="url(#clip0_45_246)">
<path d="M29.7619 59C45.8044 59 58.8095 45.995 58.8095 29.9524C58.8095 13.9098 45.8044 0.904785 29.7619 0.904785C13.7193 0.904785 0.714233 13.9098 0.714233 29.9524C0.714233 45.995 13.7193 59 29.7619 59Z" fill="#E9E9E9"/>
<circle cx="29.7619" cy="29.9524" r="27.5476" stroke="white" stroke-width="3"/>
<path d="M43.2954 31.5038C43.3945 30.7115 43.4934 30.0185 43.4934 29.2262C43.4934 21.3042 37.0567 14.7684 29.0356 14.7684C28.2434 14.7684 27.5503 14.8674 26.758 14.9665C25.4708 14.2733 24.0843 13.9762 22.698 13.9762C17.7467 13.9762 13.7856 17.9373 13.7856 22.8886C13.7856 24.2749 14.0827 25.6613 14.7759 26.9486C14.6768 27.7408 14.5779 28.4339 14.5779 29.2262C14.5779 37.1482 21.0146 43.6839 29.0356 43.6839C29.8279 43.6839 30.521 43.585 31.3133 43.486C32.6005 44.0801 33.987 44.4762 35.3733 44.4762C40.3246 44.4762 44.2856 40.5151 44.2856 35.5638C44.2856 34.1775 43.8896 32.7911 43.2954 31.5038ZM35.0762 34.4745C34.7791 35.0687 34.383 35.5638 33.7889 35.96C33.1947 36.3561 32.6005 36.6531 31.8084 36.8512C31.0161 37.0493 30.1249 37.1482 29.1347 37.1482C27.0552 37.1482 25.3717 36.6531 24.1834 35.7619C23.4902 35.1677 22.896 34.4745 22.599 33.5833C22.2029 32.7911 22.896 31.8008 23.8862 31.8008H24.1834C24.7776 31.8008 25.3717 32.197 25.5697 32.6922C25.7678 33.1873 26.0648 33.5833 26.461 33.8804C27.0552 34.3756 27.9464 34.5736 29.0356 34.5736C30.0259 34.5736 30.8182 34.3756 31.4123 34.0785C32.0065 33.7814 32.3035 33.1873 32.3035 32.5931C32.3035 32.2959 32.2044 32.098 32.1054 31.8999C32.0065 31.7018 31.7093 31.5038 31.5112 31.4048C31.2142 31.2067 30.9172 31.1078 30.4219 31.0087C30.0259 30.9097 29.5308 30.7115 28.9366 30.6125L28.3424 30.4145C27.6493 30.2164 26.8571 30.0185 26.2629 29.8204C25.5697 29.6223 24.9755 29.3252 24.4804 29.0281C23.9853 28.7311 23.5892 28.335 23.2922 27.7408C22.995 27.2457 22.896 26.5525 22.896 25.7602C22.896 24.9681 23.0941 24.2749 23.3911 23.6807C23.6883 23.0865 24.1834 22.5914 24.6785 22.2944C25.2727 21.8982 25.8668 21.6012 26.659 21.5021C27.3522 21.3042 28.1445 21.2051 29.0356 21.2051C30.0259 21.2051 30.8181 21.3042 31.6103 21.5021C32.4026 21.7002 32.9967 21.9973 33.5909 22.4924C34.1851 22.8886 34.5811 23.3837 34.8781 24.0768C35.3733 24.9681 34.6802 26.1564 33.5909 26.1564H33.2937C32.6996 26.1564 32.2044 25.8593 31.9074 25.3642C31.7093 25.0672 31.5112 24.77 31.2142 24.473C30.7191 24.0768 29.9268 23.8788 29.0356 23.8788C28.1445 23.8788 27.4512 24.0768 26.9561 24.3739C26.461 24.6709 26.2629 25.1661 26.2629 25.6613C26.2629 25.9583 26.362 26.1564 26.461 26.3544C26.5601 26.5525 26.758 26.7506 27.0552 26.8495C27.3522 26.9486 27.6493 27.1467 28.0454 27.2457C28.4415 27.3446 28.9366 27.4437 29.5308 27.6418C30.1249 27.7408 30.62 27.9388 31.2142 28.0379C31.7093 28.1369 32.2044 28.335 32.6996 28.4339C33.1947 28.632 33.5909 28.8301 33.987 29.0281C34.383 29.2262 34.6802 29.5232 34.9772 29.8204C35.2743 30.1174 35.4723 30.5136 35.5714 30.9096C35.7695 31.3057 35.7695 31.8999 35.7695 32.4941C35.5714 33.1873 35.3733 33.8804 35.0762 34.4745Z" fill="black"/>
</g>
<defs>
<clipPath id="clip0_45_246">
<rect width="58.0952" height="58.0952" fill="white" transform="translate(0.714233 0.904785)"/>
</clipPath>
</defs>
</svg>
