<svg width="59" height="59" viewBox="0 0 59 59" fill="none" xmlns="http://www.w3.org/2000/svg">
<g clip-path="url(#clip0_45_242)">
<path d="M29.619 58.5476C45.6616 58.5476 58.6666 45.5426 58.6666 29.5C58.6666 13.4575 45.6616 0.452393 29.619 0.452393C13.5765 0.452393 0.571411 13.4575 0.571411 29.5C0.571411 45.5426 13.5765 58.5476 29.619 58.5476Z" fill="#E9E9E9"/>
<path d="M14.1522 30.0434L20.8304 32.5335L23.4338 40.9095C23.5469 41.4755 24.226 41.5886 24.6787 41.2491L28.414 38.193C28.7535 37.8534 29.3195 37.8534 29.7722 38.193L36.4504 43.06C36.9033 43.3996 37.5824 43.1733 37.6956 42.6073L42.6759 18.8377C42.7891 18.2717 42.2231 17.7057 41.6572 17.9321L14.1522 28.5718C13.473 28.7982 13.473 29.8169 14.1522 30.0434ZM23.0942 31.2883L36.224 23.252C36.4504 23.1387 36.6769 23.4783 36.4504 23.5916L25.6974 33.6655C25.3579 34.005 25.0183 34.4577 25.0183 35.0237L24.6787 37.7403C24.6787 38.0798 24.1129 38.193 23.9996 37.7403L22.6413 32.7599C22.3018 32.1939 22.5282 31.5148 23.0942 31.2883Z" fill="black"/>
<circle cx="29.619" cy="29.5" r="27.5476" stroke="white" stroke-width="3"/>
</g>
<defs>
<clipPath id="clip0_45_242">
<rect width="58.0952" height="58.0952" fill="white" transform="translate(0.571411 0.452393)"/>
</clipPath>
</defs>
</svg>
