<svg width="59" height="59" viewBox="0 0 59 59" fill="none" xmlns="http://www.w3.org/2000/svg">
<g clip-path="url(#clip0_45_238)">
<path d="M29.9048 58.5476C45.9474 58.5476 58.9524 45.5426 58.9524 29.5C58.9524 13.4575 45.9474 0.452393 29.9048 0.452393C13.8622 0.452393 0.857178 13.4575 0.857178 29.5C0.857178 45.5426 13.8622 58.5476 29.9048 58.5476Z" fill="#E9E9E9"/>
<path d="M44.147 36.9294C44.147 36.8087 44.0265 36.8087 44.0265 36.6882C43.5442 35.7235 42.4589 34.5177 41.0119 33.1914C40.2885 32.5884 39.9267 32.106 39.6856 31.8649C39.3238 31.3826 39.3238 31.0208 39.4445 30.5385C39.5651 30.1768 40.0474 29.574 40.8914 28.4886C41.3737 27.8857 41.6148 27.5241 41.9766 27.1623C43.7854 24.7506 44.6294 23.183 44.3883 22.4596L44.2677 22.3391C44.147 22.2185 44.0265 22.0978 43.7854 22.0978C43.5442 21.9773 43.1825 21.9773 42.8207 22.0978H38.2386C38.1181 22.0978 38.1181 22.0978 37.8768 22.0978C37.7563 22.0978 37.6357 22.0978 37.6357 22.0978H37.5152H37.3946L37.2739 22.2185C37.1534 22.3391 37.1534 22.3391 37.1534 22.4596C36.6711 23.7861 36.0682 24.8713 35.4653 26.0771C35.1035 26.6799 34.7417 27.2828 34.3801 27.7652C34.0183 28.2475 33.7772 28.6093 33.5359 28.8504C33.2949 29.0916 33.0536 29.2122 32.9331 29.4533C32.8125 29.574 32.5713 29.6945 32.5713 29.574C32.4507 29.574 32.3302 29.574 32.3302 29.4533C32.2096 29.3327 32.0889 29.2122 31.9684 29.0916C31.8478 28.9709 31.8478 28.7298 31.7273 28.4886C31.7273 28.2475 31.7273 28.0064 31.7273 27.8857C31.7273 27.7652 31.7273 27.4034 31.7273 27.1623C31.7273 26.8005 31.7273 26.5594 31.7273 26.4388C31.7273 26.0771 31.7273 25.5947 31.7273 25.1124C31.7273 24.6301 31.7273 24.2683 31.7273 24.0272C31.7273 23.7861 31.7273 23.4243 31.7273 23.183C31.7273 22.8214 31.7273 22.5802 31.7273 22.4596C31.7273 22.3391 31.6068 22.0978 31.6068 21.9773C31.4861 21.8567 31.3655 21.7362 31.245 21.6155C31.1244 21.4949 30.8832 21.4949 30.7626 21.3744C30.1597 21.2538 29.4362 21.1333 28.5922 21.1333C26.6628 21.1333 25.3365 21.2538 24.8542 21.4949C24.613 21.6156 24.3719 21.7362 24.2513 21.9773C24.0101 22.2185 24.0101 22.3391 24.1306 22.3391C24.7335 22.4596 25.2158 22.7007 25.4571 23.0625L25.5776 23.3037C25.6982 23.4243 25.6982 23.6654 25.8187 24.0272C25.9394 24.389 25.9394 24.7506 25.9394 25.2329C25.9394 25.9565 25.9394 26.6799 25.9394 27.1623C25.9394 27.7652 25.8187 28.127 25.8187 28.4886C25.8187 28.8504 25.6982 29.0916 25.5776 29.2122C25.4571 29.4533 25.4571 29.574 25.3365 29.574C25.3365 29.574 25.3365 29.6945 25.2158 29.6945C25.0953 29.6945 24.9747 29.8151 24.7335 29.8151C24.613 29.8151 24.3719 29.6945 24.2513 29.574C24.0101 29.4533 23.769 29.2122 23.6483 28.9709C23.4072 28.7298 23.1659 28.368 22.9249 27.8857C22.6838 27.4034 22.322 26.9212 22.0807 26.1976L21.8396 25.7153C21.7191 25.4742 21.4778 24.9918 21.2368 24.389C20.9955 23.7861 20.7544 23.3037 20.5132 22.7009C20.3926 22.4596 20.2721 22.3391 20.1515 22.2185H20.031C20.031 22.2185 19.9103 22.0978 19.7897 22.0978C19.6692 22.0978 19.5486 21.9773 19.428 21.9773H15.0871C14.6048 21.9773 14.3636 22.0978 14.243 22.2185L14.1224 22.3391C14.1224 22.3391 14.1224 22.4596 14.1224 22.5802C14.1224 22.7009 14.1225 22.8214 14.243 23.0625C14.8459 24.5095 15.5694 25.9565 16.2928 27.4034C17.0164 28.7298 17.7399 29.9356 18.2222 30.7797C18.8251 31.6238 19.3074 32.4678 19.9103 33.1914C20.5132 33.9148 20.875 34.3972 20.9955 34.6383C21.2367 34.8795 21.3573 35.0001 21.4778 35.1206L21.8396 35.4824C22.0807 35.7235 22.4425 36.0853 22.9249 36.4471C23.4072 36.8087 24.0101 37.1705 24.613 37.5323C25.2158 37.8939 25.9394 38.1352 26.6628 38.3763C27.507 38.6175 28.2304 38.738 28.9538 38.6175H30.7626C31.1244 38.6175 31.3655 38.497 31.6068 38.2557L31.7273 38.1352C31.7273 38.0146 31.8478 38.0146 31.8478 37.8939C31.8478 37.7734 31.8478 37.6528 31.8478 37.4117C31.8478 36.9294 31.8478 36.5676 31.9684 36.2058C32.0889 35.8442 32.0891 35.6029 32.2096 35.3618C32.3302 35.1206 32.4507 35.0001 32.5713 34.8795C32.692 34.7588 32.8125 34.6383 32.8125 34.6383H32.9331C33.1742 34.5177 33.5359 34.6383 33.7772 34.8795C34.1388 35.1206 34.5006 35.4824 34.7417 35.8442C34.983 36.2058 35.3447 36.5676 35.8271 37.0499C36.3094 37.5323 36.6711 37.8939 36.9123 38.0146L37.2739 38.2557C37.5152 38.3763 37.7563 38.497 38.1181 38.6175C38.4799 38.738 38.7209 38.738 38.962 38.738L43.0618 38.6175C43.4236 38.6175 43.7854 38.497 44.0265 38.3763C44.2677 38.2557 44.3883 38.1352 44.3883 37.8939C44.3883 37.7734 44.3883 37.5323 44.3883 37.4117C44.147 37.1705 44.147 37.0499 44.147 36.9294Z" fill="black"/>
<circle cx="29.9048" cy="29.5" r="27.5476" stroke="white" stroke-width="3"/>
</g>
<defs>
<clipPath id="clip0_45_238">
<rect width="58.0952" height="58.0952" fill="white" transform="translate(0.857178 0.452393)"/>
</clipPath>
</defs>
</svg>
