<svg width="195" height="195" viewBox="0 0 195 195" fill="none" xmlns="http://www.w3.org/2000/svg">
<path fill-rule="evenodd" clip-rule="evenodd" d="M194.294 109.294C193.789 113.479 193.02 117.583 192.002 121.588L73.4124 2.99817C77.4171 1.98047 81.5208 1.21069 85.7061 0.706055L194.294 109.294ZM63.5046 6.09033C66.3719 5.02356 69.3029 4.08777 72.2904 3.29041L191.71 122.71C190.912 125.697 189.976 128.628 188.91 131.495L63.5046 6.09033ZM194.439 108.024C194.81 104.567 195 101.056 195 97.5C195 96.3069 194.979 95.1188 194.936 93.936L101.064 0.0639648C99.8812 0.0214844 98.6931 0 97.5 0C93.9442 0 90.4329 0.190308 86.9757 0.561401L194.439 108.024ZM188.521 132.521C187.194 135.969 185.677 139.322 183.982 142.568L52.4326 11.0183C55.6783 9.32349 59.0312 7.80591 62.4787 6.47864L188.521 132.521ZM42.4388 17.0245C45.3517 15.0276 48.3786 13.1848 51.5076 11.5077L183.492 143.492C181.815 146.621 179.972 149.648 177.975 152.561L42.4388 17.0245ZM41.6035 17.6035L177.397 153.396C175.949 155.461 174.424 157.468 172.825 159.411L35.5893 22.175C37.5325 20.576 39.5386 19.0508 41.6035 17.6035ZM194.872 92.4576C192.333 42.6234 152.377 2.66699 102.542 0.128174L194.872 92.4576ZM172.183 160.183C169.968 162.819 167.616 165.336 165.138 167.724L27.2762 29.8619C29.6636 27.3839 32.1808 25.032 34.8171 22.817L172.183 160.183ZM156.525 175.11C159.273 173.017 161.906 170.781 164.414 168.414L26.5859 30.5859C24.2186 33.0939 21.9828 35.7273 19.8897 38.4753L156.525 175.11ZM155.718 175.718C152.716 177.956 149.581 180.026 146.326 181.912L13.0879 48.6737C14.9745 45.4192 17.0438 42.2839 19.2819 39.2819L155.718 175.718ZM135.663 187.248C139.018 185.82 142.277 184.208 145.427 182.427L12.573 49.573C10.7915 52.723 9.18025 55.9819 7.75165 59.3374L135.663 187.248ZM134.666 187.666C131.149 189.117 127.529 190.368 123.82 191.406L3.59398 71.1797C4.63147 67.4703 5.88283 63.8505 7.33392 60.3339L134.666 187.666ZM111.427 194.013C115.264 193.464 119.03 192.692 122.71 191.709L3.29044 72.2904C2.3083 75.9701 1.53601 79.7355 0.987167 83.5729L111.427 194.013ZM110.183 194.183L0.817368 84.8174C0.278137 88.9686 0 93.2018 0 97.5C0 97.8644 0.0019989 98.2284 0.00598145 98.5918L96.4082 194.994C96.6355 194.997 96.863 194.998 97.0907 194.999C97.2271 195 97.3635 195 97.5 195C101.798 195 106.031 194.722 110.183 194.183ZM0.0322418 100.032L94.9678 194.968C89.3753 194.825 83.8999 194.212 78.5797 193.166L1.83452 116.42C0.7883 111.1 0.17482 105.625 0.0322418 100.032ZM2.20236 118.202C10.2524 155.434 39.5665 184.748 76.7977 192.798L2.20236 118.202Z" fill="url(#paint0_linear_42_200)" fill-opacity="0.6"/>
<defs>
<linearGradient id="paint0_linear_42_200" x1="28.4055" y1="25.3346" x2="161.604" y2="166.594" gradientUnits="userSpaceOnUse">
<stop stop-color="#FF7E4B"/>
<stop offset="0.510417" stop-color="#358AFF"/>
<stop offset="1" stop-color="#9C9C9C"/>
</linearGradient>
</defs>
</svg>
